<?xml version="1.0" standalone="no"?>
<!DOCTYPE svg PUBLIC "-//W3C//DTD SVG 20010904//EN"
 "http://www.w3.org/TR/2001/REC-SVG-20010904/DTD/svg10.dtd">
<svg version="1.0" xmlns="http://www.w3.org/2000/svg"
 width="450.000000pt" height="450.000000pt" viewBox="0 0 450.000000 450.000000"
 preserveAspectRatio="xMidYMid meet">

<g transform="translate(0.000000,450.000000) scale(0.100000,-0.100000)"
fill="#000000" stroke="none">
<path d="M3080 4349 c-63 -10 -178 -28 -255 -39 -77 -11 -201 -30 -275 -41
-178 -26 -375 -55 -535 -79 -71 -11 -193 -29 -270 -40 -77 -11 -201 -30 -275
-41 -74 -11 -167 -25 -205 -30 l-70 -11 6 -81 c24 -288 21 -475 -11 -882 -17
-220 -35 -508 -39 -640 -8 -220 -1 -687 14 -895 10 -149 35 -450 50 -615 9
-88 20 -212 26 -275 18 -202 39 -269 126 -402 47 -72 132 -155 167 -164 44
-11 632 142 944 246 282 93 805 308 838 343 24 27 60 350 86 772 l12 201 -37
74 c-38 80 -125 193 -177 230 l-31 22 32 -46 c30 -42 32 -48 17 -62 -14 -14
-18 -11 -42 30 -14 24 -26 52 -26 62 0 15 -4 14 -25 -6 -19 -18 -25 -34 -25
-66 0 -24 -5 -55 -11 -71 l-11 -28 -15 34 c-11 27 -12 39 -3 55 6 12 19 36 29
54 9 18 30 44 47 57 16 13 24 24 18 25 -6 0 -16 11 -22 25 -8 17 -17 23 -28
18 -12 -5 -13 -7 -2 -14 15 -10 15 -10 -32 -16 -61 -8 -81 -5 -94 12 -11 15
-17 12 -61 -27 -79 -69 -94 -76 -40 -20 34 36 44 52 32 52 -9 0 -22 9 -29 20
-13 21 -38 27 -38 10 0 -5 5 -10 10 -10 6 0 10 -7 10 -16 0 -13 -3 -14 -14 -5
-15 13 -30 0 -39 -34 -3 -13 -5 -10 -6 12 0 17 5 34 12 36 10 4 10 6 0 6 -7 1
-13 10 -13 22 0 12 -4 17 -11 13 -6 -3 -9 -16 -6 -28 2 -11 1 -32 -3 -46 -6
-20 -9 -13 -15 37 -9 71 -13 73 -121 74 -82 1 -316 -29 -372 -47 -61 -20 -82
-18 -82 6 0 11 7 23 15 26 11 5 12 11 5 24 -7 13 -7 21 1 26 8 5 6 10 -5 16
-11 6 -22 6 -31 -2 -20 -17 -25 19 -6 49 15 23 15 24 -4 14 -17 -10 -23 -6
-43 24 -28 40 -75 63 -129 62 -21 0 -110 -13 -198 -28 l-160 -28 1 -44 c0 -24
4 -91 9 -149 8 -104 8 -105 -12 -88 -11 10 -24 18 -29 18 -5 0 -2 -5 6 -10 9
-6 10 -10 3 -10 -6 0 -19 -7 -28 -17 -14 -14 -18 -14 -26 -2 -7 11 -9 9 -9 -9
0 -18 4 -21 23 -17 13 3 35 -3 54 -14 26 -16 33 -29 39 -67 6 -44 5 -49 -22
-68 -16 -12 -63 -49 -105 -82 l-76 -62 -12 132 c-10 117 -58 559 -64 595 -2
11 44 22 208 46 249 38 645 115 985 191 764 171 737 167 778 138 19 -13 22
-13 22 0 0 27 -106 913 -121 1016 -8 52 -9 136 -3 270 4 107 8 218 8 245 l1
50 -35 2 c-19 0 -87 -7 -150 -18z m-111 -481 c20 -53 6 -60 -170 -90 -387 -65
-549 -95 -555 -100 -2 -3 -6 -44 -7 -92 -2 -47 -8 -91 -14 -97 -9 -9 -53 -3
-170 21 -142 29 -186 40 -156 40 5 0 70 -11 144 -25 74 -14 140 -25 147 -25
10 0 12 21 11 85 -2 55 1 89 9 97 7 7 12 19 12 26 0 13 -22 14 -147 8 -81 -4
-146 -5 -143 -2 3 2 142 28 310 56 168 28 391 66 495 84 233 41 224 41 234 14z
m-1169 -168 c-17 -11 -11 -12 46 -10 28 1 43 -3 47 -13 7 -19 -2 -57 -14 -57
-5 0 -9 -9 -9 -20 0 -15 -7 -20 -29 -20 -16 0 -34 7 -41 15 -9 11 -15 12 -25
2 -11 -10 -9 -14 13 -24 15 -7 20 -12 12 -12 -30 -1 -60 12 -60 25 0 8 -4 13
-8 12 -5 -2 -22 11 -40 28 -22 23 -38 30 -55 27 -14 -3 -27 -1 -31 5 -8 13 85
25 98 12 5 -5 17 -10 25 -10 11 0 12 3 3 12 -9 9 -6 14 11 23 29 14 79 19 57
5z m280 -26 c0 -8 -7 -14 -17 -14 -14 0 -15 -2 -1 -17 9 -10 18 -25 21 -33 3
-8 6 6 6 33 1 26 6 47 11 47 6 0 10 -13 10 -30 0 -38 27 -41 32 -3 2 14 9 29
17 31 11 4 13 -3 8 -28 -4 -18 -7 -52 -7 -76 0 -24 -4 -44 -10 -44 -5 0 -10
14 -10 30 0 41 -25 39 -35 -2 -7 -32 -7 -32 -14 -8 -6 21 -8 22 -14 8 -5 -14
-15 -17 -39 -14 -18 3 -41 5 -50 5 -11 1 -18 9 -19 24 -1 16 -2 18 -6 5 -7
-28 -23 -21 -24 10 l-2 27 -4 -27 c-8 -52 -24 -29 -21 30 3 54 4 57 31 60 16
2 35 -2 43 -9 10 -8 14 -8 14 0 0 6 7 11 15 11 18 0 19 -12 3 -28 -8 -8 -8
-15 3 -28 11 -13 11 -18 2 -21 -24 -8 -14 -31 12 -29 28 1 33 17 10 36 -19 16
-19 30 1 58 16 23 34 21 34 -4z m-500 -59 c0 -5 -5 -3 -10 5 -5 8 -10 20 -10
25 0 6 5 3 10 -5 5 -8 10 -19 10 -25z m68 -30 c11 -10 -17 -27 -43 -27 -31 0
-37 4 -30 24 6 14 60 16 73 3z m62 -14 c0 -12 -21 -19 -37 -13 -22 8 -14 22
12 22 14 0 25 -4 25 -9z m-407 -532 c3 -30 11 -78 17 -108 5 -30 8 -56 6 -59
-3 -2 -18 22 -34 54 -26 53 -29 68 -27 145 2 101 16 137 26 68 4 -25 9 -70 12
-100z m3 -196 c-6 -7 -45 37 -46 52 0 5 12 -3 26 -18 14 -16 23 -31 20 -34z
m-36 -7 c0 -7 9 -25 20 -39 11 -14 19 -31 17 -39 -2 -7 -2 -10 0 -5 14 24 22
-1 18 -55 -7 -95 -32 -104 -59 -20 -17 54 -21 172 -6 172 5 0 10 -6 10 -14z
m620 -568 c0 -21 -52 -152 -65 -167 -16 -17 -38 -5 -32 18 2 9 14 39 25 67
l21 52 -41 -5 c-35 -5 -40 -4 -36 13 2 13 15 21 38 25 60 11 90 10 90 -3z m76
-32 c4 -19 12 -24 31 -23 38 3 41 -22 4 -29 -26 -6 -31 -11 -31 -35 0 -37 -25
-39 -34 -3 -5 19 -11 24 -26 19 -11 -3 -25 -3 -30 0 -16 10 8 35 31 35 14 0
19 7 19 30 0 37 27 41 36 6z m209 -106 c7 -31 1 -50 -16 -50 -5 0 -9 18 -9 40
0 47 16 53 25 10z m-156 -51 c-10 -6 -11 -9 -1 -9 6 0 12 -7 12 -15 0 -9 -9
-15 -22 -14 -13 0 -17 3 -10 6 15 6 6 23 -13 23 -7 0 -16 -10 -18 -22 -4 -16
-5 -13 -4 7 2 21 7 30 19 30 9 0 20 3 24 7 4 4 11 5 16 1 6 -3 4 -9 -3 -14z
m-166 -12 c4 3 13 1 20 -6 11 -9 17 -8 27 4 7 8 18 15 25 15 14 0 27 -38 19
-52 -7 -11 -44 -10 -44 2 0 6 -4 10 -10 10 -5 0 -9 -6 -7 -12 1 -7 -8 -14 -20
-16 -22 -3 -28 6 -24 37 2 7 -2 10 -8 6 -6 -3 -11 -17 -11 -31 0 -13 -4 -24
-10 -24 -5 0 -10 9 -10 19 0 11 -4 23 -10 26 -5 3 -10 11 -10 17 0 7 5 6 15
-2 12 -10 16 -9 21 4 5 12 10 14 19 6 6 -5 15 -7 18 -3z m987 -17 c0 -5 -4
-10 -10 -10 -5 0 -10 5 -10 10 0 6 5 10 10 10 6 0 10 -4 10 -10z m260 -20 c0
-5 -4 -10 -10 -10 -5 0 -10 5 -10 10 0 6 5 10 10 10 6 0 10 -4 10 -10z m-940
-28 c0 -18 16 -195 24 -273 l4 -37 -82 -16 c-303 -62 -348 -65 -393 -20 -27
27 -32 88 -8 98 8 3 15 17 15 30 0 37 42 63 76 47 14 -6 23 -7 20 -2 -12 18
289 191 331 191 7 0 13 -8 13 -18z m820 -50 c-12 -27 -27 -49 -35 -49 -10 0
-6 17 17 60 37 69 49 62 18 -11z m-249 -61 c2 -47 -2 -105 -8 -111 -2 -2 -8 2
-12 9 -6 9 -11 10 -15 2 -4 -6 -3 -11 3 -11 18 0 41 -31 41 -55 0 -15 7 -26
20 -30 24 -8 50 -54 50 -90 0 -14 5 -25 12 -25 9 0 9 -3 1 -11 -9 -9 3 -23 46
-54 32 -24 66 -54 75 -66 31 -44 13 -133 -33 -166 -10 -7 -21 -25 -24 -40 -2
-16 -12 -61 -21 -102 -12 -56 -14 -77 -5 -88 18 -21 13 -145 -6 -159 -19 -14
-19 -25 0 -18 25 10 18 -29 -16 -79 -48 -73 -154 -164 -237 -204 -61 -29 -89
-36 -156 -40 -69 -5 -90 -2 -133 17 -65 28 -107 70 -98 99 4 12 11 18 17 15 8
-5 9 -1 3 12 -4 10 -10 29 -12 42 -8 32 -20 27 -27 -12 -6 -33 -40 -56 -58
-38 -7 7 -49 154 -45 158 1 1 14 5 28 9 25 6 27 4 36 -42 10 -51 11 -51 28 33
3 15 15 28 25 31 25 7 25 16 0 105 -11 40 -20 76 -20 80 0 19 35 38 70 38 27
0 53 10 90 35 29 20 55 33 58 30 3 -2 11 0 18 6 10 8 17 5 30 -10 16 -19 18
-19 32 -3 12 16 13 15 6 -3 -4 -11 -7 -28 -8 -37 0 -10 -4 -18 -8 -18 -4 0 -8
-4 -8 -9 0 -12 -44 -61 -55 -61 -4 0 -5 11 -3 25 4 16 1 25 -8 25 -7 0 -14
-10 -16 -22 -3 -26 -36 -37 -49 -16 -6 10 -9 10 -9 1 0 -21 -28 -15 -35 7 -5
15 -15 20 -41 20 -19 0 -34 -2 -34 -5 0 -3 9 -39 21 -80 16 -61 18 -82 10
-107 -13 -37 -14 -78 -3 -78 5 0 13 21 18 48 7 37 14 48 30 50 20 3 21 0 14
-35 -4 -21 -15 -65 -25 -97 l-18 -60 29 -23 c107 -86 304 -38 448 111 65 67
68 71 45 76 -18 4 -25 14 -27 38 -3 26 4 40 32 68 20 20 36 38 36 41 0 3 -13
3 -30 0 -21 -5 -30 -3 -30 6 0 19 21 37 42 37 12 0 18 8 18 23 0 12 6 42 14
67 29 97 29 103 7 97 -19 -5 -19 -4 -5 19 18 27 26 74 12 74 -5 0 -6 5 -3 10
3 6 -3 10 -14 10 -12 0 -21 -4 -21 -10 0 -5 5 -10 11 -10 15 0 5 -66 -12 -87
-11 -12 -14 -12 -22 2 -5 10 -4 21 3 30 9 10 3 19 -24 40 -41 31 -38 50 8 41
l31 -6 -25 14 c-24 14 -27 12 -87 -46 -77 -77 -108 -97 -124 -81 -10 10 -8 14
7 19 26 10 74 46 74 56 0 4 -9 8 -19 8 -16 0 -18 6 -15 33 3 17 6 43 8 57 1
14 13 30 27 37 17 9 19 13 7 13 -9 0 -23 3 -31 6 -12 4 -14 0 -10 -15 4 -15 1
-21 -10 -21 -8 0 -17 -6 -19 -12 -3 -8 -10 -3 -18 12 -7 14 -17 28 -22 31 -5
3 -10 12 -11 20 -2 8 -6 19 -10 25 -4 7 0 15 9 18 18 7 11 40 -15 70 -12 14
-13 20 -4 23 8 3 4 13 -12 31 -14 15 -25 31 -25 35 0 5 13 -5 29 -22 35 -37
39 -38 39 -6 0 14 -4 25 -9 25 -19 0 -7 29 56 135 73 124 93 145 112 118 7 -9
14 -33 14 -52z m-1486 -286 c18 -61 16 -191 -2 -187 -18 3 -16 -18 3 -39 8 -9
14 -28 12 -41 -3 -20 -7 -18 -36 26 -27 42 -32 60 -32 107 0 37 5 59 13 62 8
4 9 8 1 14 -5 4 -11 44 -12 88 l-3 80 21 -30 c11 -16 27 -52 35 -80z m1175 55
c0 -5 -5 -10 -11 -10 -5 0 -7 5 -4 10 3 6 8 10 11 10 2 0 4 -4 4 -10z m-188
-25 c84 -8 108 -14 108 -24 0 -5 -28 -7 -62 -5 -48 3 -58 2 -40 -6 22 -9 22
-11 6 -35 -15 -23 -43 -37 -29 -15 4 7 -2 9 -18 5 -23 -6 -25 -4 -24 27 2 31
0 33 -28 31 -25 -2 -27 -1 -10 6 11 5 14 10 7 10 -7 1 -10 6 -7 12 4 6 13 8
20 5 8 -3 42 -8 77 -11z m151 -8 c3 -8 -1 -14 -9 -14 -8 0 -14 6 -14 14 0 7 4
13 9 13 5 0 11 -6 14 -13z m104 -13 c-4 -4 3 -20 14 -35 11 -16 17 -29 12 -29
-25 1 -50 70 -26 70 4 0 3 -3 0 -6z m-57 -18 c0 -3 -4 -8 -10 -11 -5 -3 -10
-1 -10 4 0 6 5 11 10 11 6 0 10 -2 10 -4z m-2 -38 c-3 -7 1 -24 9 -38 12 -23
11 -25 -11 -31 -14 -4 -29 -10 -35 -14 -6 -3 -11 -1 -11 4 0 6 7 11 15 11 11
0 14 7 9 25 -4 15 -1 32 6 40 15 18 23 19 18 3z m62 -30 c0 -4 -4 -8 -10 -8
-5 0 -10 4 -10 9 0 5 -3 18 -6 28 -5 16 -4 16 10 -1 9 -11 16 -23 16 -28z m10
-53 c22 -26 6 -35 -19 -10 -17 18 -19 25 -8 25 8 0 20 -7 27 -15z m-109 -72
c13 -16 12 -17 -3 -4 -10 7 -18 15 -18 17 0 8 8 3 21 -13z m49 -16 c38 10 59
0 23 -11 -81 -23 -153 -17 -153 14 0 18 2 18 45 2 36 -13 53 -14 85 -5z m94
-39 c-6 -9 -3 -9 9 1 22 18 47 7 47 -21 0 -28 -58 -88 -85 -88 -36 0 -37 13
-3 27 23 10 29 16 19 22 -10 7 -9 9 3 14 9 4 16 11 16 17 0 6 -4 9 -8 6 -4 -2
-9 4 -9 15 -1 10 3 19 8 19 6 0 7 -6 3 -12z m220 -25 c4 -5 13 -8 19 -8 14 0
10 -58 -4 -63 -5 -2 -9 -10 -9 -18 0 -8 -7 -14 -16 -14 -8 0 -12 5 -9 10 4 6
-2 26 -13 44 -15 25 -17 37 -9 45 13 13 30 14 41 4z m-269 -23 c-3 -5 -12 -10
-18 -10 -7 0 -6 4 3 10 19 12 23 12 15 0z m10 -20 c-3 -5 -12 -10 -18 -10 -7
0 -6 4 3 10 19 12 23 12 15 0z m-86 -13 c-2 -2 -20 -14 -39 -26 l-35 -23 28
26 c15 14 33 26 39 26 6 0 9 -1 7 -3z m299 -27 c3 -15 -3 -29 -14 -37 -13 -9
-14 -13 -4 -13 11 0 11 -3 2 -12 -10 -10 -15 -10 -22 2 -6 10 -4 17 5 23 8 4
15 13 15 18 0 6 -4 8 -8 5 -7 -4 -8 21 -3 42 3 13 27 -9 29 -28z m-561 -52
c-3 -8 -6 -5 -6 6 -1 11 2 17 5 13 3 -3 4 -12 1 -19z m420 -10 c-3 -8 -6 -5
-6 6 -1 11 2 17 5 13 3 -3 4 -12 1 -19z m-50 -20 c-3 -8 -6 -5 -6 6 -1 11 2
17 5 13 3 -3 4 -12 1 -19z m465 -30 c-7 -7 -12 -8 -12 -2 0 14 12 26 19 19 2
-3 -1 -11 -7 -17z m-2 -48 c-6 -10 -17 -17 -24 -14 -28 11 -29 -19 -3 -38 15
-11 27 -28 27 -38 0 -29 -48 -80 -76 -80 -36 0 -27 34 10 41 29 6 30 24 1 37
-17 8 -25 19 -25 37 0 33 42 75 75 75 22 0 24 -2 15 -20z m-292 -60 c-3 -27
-3 -50 -1 -50 2 0 16 14 30 30 13 17 29 30 34 30 18 0 8 -37 -16 -60 l-24 -23
24 -43 24 -43 -21 -7 c-15 -5 -26 0 -39 17 l-19 24 0 -31 c0 -28 -14 -44 -38
-44 -4 0 -5 50 -4 112 3 90 7 115 20 125 29 22 35 14 30 -37z m-173 -25 c0
-23 -31 -43 -45 -29 -7 7 -5 17 6 32 18 26 39 24 39 -3z m-137 -50 c-3 -29 -1
-34 11 -29 9 4 25 7 36 8 18 1 20 -6 23 -78 3 -76 -3 -95 -30 -96 -5 0 -8 30
-8 66 0 57 -2 65 -17 62 -15 -3 -19 -16 -21 -68 -3 -60 -12 -79 -37 -80 -6 0
-9 42 -7 112 2 91 6 115 19 126 27 20 35 14 31 -23z m246 21 c-3 -8 -15 -16
-27 -18 -30 -4 -32 -26 -3 -38 58 -22 16 -120 -51 -120 -32 0 -27 32 6 40 34
8 37 28 7 40 -53 20 -16 110 45 110 21 0 27 -4 23 -14z m-114 -101 c0 -47 -2
-85 -4 -85 -2 0 -11 -3 -20 -6 -14 -5 -16 5 -16 79 0 82 4 93 33 96 4 1 7 -37
7 -84z"/>
<path d="M1802 3643 c-1 -22 0 -24 8 -13 12 18 13 40 2 40 -4 0 -9 -12 -10
-27z"/>
<path d="M1871 3654 c0 -11 3 -14 6 -6 3 7 2 16 -1 19 -3 4 -6 -2 -5 -13z"/>
<path d="M1828 3635 c-3 -14 -1 -28 3 -31 5 -3 9 9 9 25 0 38 -6 40 -12 6z"/>
<path d="M1930 3655 c0 -8 5 -15 10 -15 6 0 10 7 10 15 0 8 -4 15 -10 15 -5 0
-10 -7 -10 -15z"/>
<path d="M1960 3649 c0 -5 5 -7 10 -4 6 3 10 8 10 11 0 2 -4 4 -10 4 -5 0 -10
-5 -10 -11z"/>
<path d="M1976 3622 c-2 -4 -1 -14 5 -22 7 -12 9 -10 9 8 0 23 -5 28 -14 14z"/>
<path d="M1264 2735 c12 -52 19 -66 29 -62 21 7 18 25 -8 53 -21 24 -25 25
-21 9z"/>
<path d="M1910 2050 c0 -5 5 -10 10 -10 6 0 10 5 10 10 0 6 -4 10 -10 10 -5 0
-10 -4 -10 -10z"/>
<path d="M1895 1853 c-11 -2 -30 -6 -43 -9 -40 -8 -13 -23 31 -18 23 4 50 7
59 7 10 1 20 7 22 14 5 13 -25 16 -69 6z"/>
<path d="M1770 1820 c0 -6 -5 -8 -12 -4 -6 4 -8 3 -5 -3 6 -9 57 -16 57 -7 0
2 -9 8 -20 14 -14 8 -20 8 -20 0z"/>
<path d="M1976 1821 c-6 -10 -91 -26 -118 -23 -11 1 -18 -5 -18 -14 0 -12 8
-15 33 -11 65 9 117 28 117 42 0 17 -6 19 -14 6z"/>
<path d="M1730 1792 c0 -30 24 -46 49 -32 12 6 21 15 21 20 0 12 -2 12 -35 0
-23 -9 -26 -8 -22 4 4 9 2 18 -3 21 -6 4 -10 -3 -10 -13z"/>
<path d="M1968 1754 c-6 -5 -78 -16 -110 -15 -10 0 -18 -7 -18 -16 0 -16 0
-16 115 2 11 2 23 4 28 4 10 1 9 31 -1 31 -5 0 -11 -3 -14 -6z"/>
<path d="M1750 1710 c-16 -16 -18 -25 -10 -40 13 -25 42 -26 63 -2 21 23 21
27 1 46 -20 21 -30 20 -54 -4z m50 -20 c0 -24 -26 -38 -42 -22 -16 16 -2 42
22 42 13 0 20 -7 20 -20z"/>
<path d="M1946 1704 c-38 -7 -73 -12 -79 -11 -6 1 -12 -6 -15 -15 -2 -13 3
-16 25 -13 15 2 30 4 33 5 6 3 9 3 73 14 43 8 58 19 40 29 -5 2 -39 -2 -77 -9z"/>
<path d="M2690 1739 c-7 -11 -10 -22 -8 -23 2 -1 11 -8 21 -15 15 -12 17 -11
17 8 0 15 -4 20 -12 15 -10 -6 -10 -4 0 8 8 10 9 18 3 22 -6 4 -15 -3 -21 -15z"/>
<path d="M2640 1640 c0 -5 7 -7 15 -4 8 4 15 8 15 10 0 2 -7 4 -15 4 -8 0 -15
-4 -15 -10z"/>
<path d="M2586 1615 c16 -24 34 -33 34 -17 0 13 -15 28 -33 35 -16 6 -16 5 -1
-18z"/>
<path d="M2540 1618 c0 -7 7 -22 15 -32 16 -21 18 -15 9 22 -7 23 -24 31 -24
10z"/>
<path d="M2660 1615 c-33 -17 -53 -54 -48 -91 4 -37 32 -35 71 7 29 32 34 56
15 82 -11 14 -16 14 -38 2z m25 -25 c3 -5 2 -16 -2 -24 -11 -20 -38 -3 -30 18
7 18 23 21 32 6z m-22 -62 c-2 -5 -13 -8 -24 -8 -10 0 -19 3 -19 8 0 4 11 7
24 7 13 0 22 -3 19 -7z"/>
<path d="M2697 1531 c-32 -34 -35 -51 -8 -44 12 3 17 11 14 19 -3 8 -1 14 4
14 4 0 14 9 21 20 18 29 1 24 -31 -9z"/>
<path d="M2808 953 c-22 -24 -23 -43 -3 -43 18 0 28 21 23 46 -3 14 -5 14 -20
-3z"/>
<path d="M1207 1514 c-11 -12 -8 -72 5 -80 7 -4 8 -3 4 4 -4 6 -3 20 2 29 10
19 1 59 -11 47z"/>
<path d="M1226 1445 c4 -8 8 -15 10 -15 2 0 4 7 4 15 0 8 -4 15 -10 15 -5 0
-7 -7 -4 -15z"/>
<path d="M2200 1586 c0 -2 7 -7 16 -10 8 -3 12 -2 9 4 -6 10 -25 14 -25 6z"/>
<path d="M3280 2590 c0 -11 2 -20 4 -20 2 0 6 9 9 20 3 11 1 20 -4 20 -5 0 -9
-9 -9 -20z"/>
<path d="M3314 2595 c-3 -8 -4 -20 -2 -27 3 -7 7 -1 10 15 6 29 1 36 -8 12z"/>
<path d="M3180 2590 c-9 -6 -10 -10 -3 -10 6 0 15 5 18 10 8 12 4 12 -15 0z"/>
<path d="M3215 2580 c-8 -13 4 -32 16 -25 12 8 12 35 0 35 -6 0 -13 -4 -16
-10z"/>
<path d="M3080 2530 c-8 -5 -10 -10 -5 -10 6 0 17 5 25 10 8 5 11 10 5 10 -5
0 -17 -5 -25 -10z"/>
<path d="M3290 2515 c0 -17 2 -17 10 -5 9 13 11 13 20 0 8 -12 10 -12 10 5 0
14 -6 21 -20 21 -14 0 -20 -7 -20 -21z"/>
<path d="M3216 2507 c3 -9 9 -17 13 -18 3 0 14 -2 24 -4 12 -2 17 1 13 10 -3
8 0 16 7 19 9 3 8 5 -1 5 -7 1 -15 -6 -19 -14 -5 -14 -8 -14 -25 2 -17 16 -18
16 -12 0z"/>
<path d="M3190 2499 c0 -6 -7 -8 -16 -5 -9 4 -13 2 -8 -5 4 -6 0 -15 -7 -20
-9 -6 -10 -9 -2 -9 6 0 14 4 18 10 3 5 11 8 18 6 7 -1 9 -1 5 1 -4 2 -4 11 -1
19 3 8 2 14 -1 14 -3 0 -6 -5 -6 -11z"/>
<path d="M2113 2493 c-15 -5 -18 -53 -4 -53 5 0 8 7 7 16 -2 26 22 28 27 2 4
-17 5 -15 4 6 -2 30 -12 38 -34 29z"/>
<path d="M3105 2490 c-4 -6 1 -7 12 -3 16 6 16 4 -2 -18 l-20 -24 22 19 c13
10 20 23 17 27 -7 12 -21 11 -29 -1z"/>
<path d="M1981 2453 c0 -17 4 -35 9 -38 6 -3 10 -2 10 4 0 6 8 8 18 4 13 -5
14 -3 5 7 -6 7 -9 20 -5 29 5 14 3 14 -10 3 -14 -11 -17 -10 -21 5 -3 10 -5 4
-6 -14z"/>
<path d="M2040 2465 c-11 -13 -11 -19 2 -32 13 -12 20 -13 34 -3 16 10 16 11
2 6 -10 -3 -20 -1 -23 4 -4 6 3 10 15 10 13 0 20 5 18 13 -7 18 -33 20 -48 2z"/>
<path d="M3050 2465 c-11 -13 -10 -14 6 -8 17 6 17 5 5 -10 -12 -15 -12 -17 3
-11 18 7 19 13 7 32 -6 10 -10 10 -21 -3z"/>
<path d="M1891 2455 c0 -11 4 -29 9 -40 8 -18 9 -18 9 5 0 14 -4 32 -9 40 -8
12 -10 12 -9 -5z"/>
<path d="M1830 2428 c0 -20 5 -40 11 -44 7 -4 9 2 7 16 -2 13 3 25 10 27 7 3
12 -4 12 -16 0 -12 5 -21 10 -21 12 0 12 2 0 35 -6 15 -15 23 -21 19 -6 -3
-15 0 -20 7 -6 10 -9 2 -9 -23z"/>
<path d="M1924 2445 c-13 -33 24 -63 41 -34 4 6 0 9 -11 7 -12 -2 -19 3 -19
12 0 8 8 14 18 14 9 -1 17 2 17 7 0 15 -40 10 -46 -6z"/>
<path d="M3005 2450 c-8 -13 3 -30 18 -30 7 0 6 4 -3 10 -13 9 -13 11 0 20 9
6 10 10 3 10 -6 0 -15 -4 -18 -10z"/>
<path d="M1762 2438 c-28 -28 -1 -75 38 -63 29 9 25 23 -5 17 -20 -3 -25 0
-25 17 0 16 6 21 26 21 14 0 23 4 19 10 -8 14 -38 13 -53 -2z"/>
<path d="M2507 2436 c-4 -10 -1 -13 8 -9 8 3 12 9 9 14 -7 12 -11 11 -17 -5z"/>
<path d="M2920 2423 c0 -21 3 -24 9 -14 5 8 7 20 4 28 -8 21 -13 15 -13 -14z"/>
<path d="M2456 2395 c4 -8 10 -15 14 -15 4 0 10 7 14 15 4 10 -1 15 -14 15
-13 0 -18 -5 -14 -15z"/>
<path d="M1680 2387 c0 -9 -9 -13 -25 -12 -14 2 -25 -1 -25 -5 0 -5 14 -8 30
-8 17 1 30 4 30 9 0 4 11 6 25 4 16 -1 24 2 22 9 -6 17 -57 20 -57 3z"/>
<path d="M2300 2373 c-13 -9 -32 -18 -42 -18 -18 -2 -74 -52 -66 -60 2 -2 19
9 37 25 37 34 41 36 41 15 0 -8 5 -15 11 -15 5 0 8 4 4 9 -3 5 9 21 27 35 37
29 27 36 -12 9z"/>
<path d="M2463 2286 c6 -14 4 -17 -8 -12 -8 3 -15 1 -15 -5 0 -6 -4 -8 -9 -4
-5 3 -12 1 -16 -5 -7 -11 2 -12 97 -10 67 1 67 1 62 -24 -5 -30 2 -33 27 -11
9 9 32 17 50 18 19 1 45 10 59 20 13 9 31 17 39 17 11 0 12 3 3 12 -6 6 -32
12 -57 13 -40 1 -45 -1 -43 -19 2 -10 -3 -21 -9 -23 -7 -3 -13 3 -13 14 0 11
-3 14 -8 7 -11 -17 -72 -15 -79 2 -8 20 -26 17 -19 -3 5 -15 4 -15 -9 1 -8 11
-18 17 -21 13 -4 -4 -14 -1 -22 6 -13 10 -15 9 -9 -7z"/>
<path d="M2330 2250 c0 -6 -6 -10 -12 -9 -27 3 -38 -2 -38 -16 0 -8 -6 -15
-12 -15 -9 0 -9 -3 1 -9 10 -6 22 -1 40 15 14 13 29 24 33 24 5 0 8 5 8 10 0
6 -4 10 -10 10 -5 0 -10 -5 -10 -10z"/>
<path d="M2920 2241 c0 -7 -6 -11 -15 -7 -23 8 -37 -29 -29 -80 5 -36 12 -48
37 -60 28 -15 29 -15 24 1 -4 9 -3 14 3 10 16 -10 33 47 20 68 -6 10 -9 21 -6
25 2 4 -4 19 -15 32 -10 14 -19 19 -19 11z"/>
<path d="M2656 2211 c-19 -7 -19 -8 3 -14 30 -8 58 2 39 14 -15 10 -17 10 -42
0z"/>
<path d="M2737 2213 c-4 -3 -7 -11 -7 -17 0 -6 5 -5 12 2 6 6 9 14 7 17 -3 3
-9 2 -12 -2z"/>
<path d="M3084 2200 c-12 -4 -24 -15 -27 -24 -4 -9 -13 -16 -20 -16 -22 0 -45
-33 -43 -60 4 -46 66 -33 121 25 24 25 29 43 15 59 -5 7 -7 16 -3 19 9 10 -18
8 -43 -3z"/>
<path d="M2250 2169 c-22 -6 -20 -7 13 -8 38 -1 47 3 25 11 -7 3 -24 1 -38 -3z"/>
<path d="M1527 1973 c-4 -3 -7 -11 -7 -17 0 -6 5 -5 12 2 6 6 9 14 7 17 -3 3
-9 2 -12 -2z"/>
<path d="M1552 1909 c-8 -12 -18 -16 -29 -12 -16 6 -16 4 1 -15 25 -29 29 -28
58 11 l25 32 -22 1 c-12 1 -27 -7 -33 -17z"/>
<path d="M1621 1888 c-14 -23 -14 -23 8 -4 22 20 25 26 13 26 -4 0 -13 -10
-21 -22z"/>
<path d="M1570 1855 c-8 -9 -8 -15 -2 -15 12 0 26 19 19 26 -2 2 -10 -2 -17
-11z"/>
</g>
</svg>
